<?xml version="1.0" encoding="UTF-8" standalone="no"?>
<!-- Uploaded to: SVG Repo, www.svgrepo.com, Generator: SVG Repo Mixer Tools -->

<svg
   height="30.001003"
   width="20.202002"
   version="1.1"
   id="Capa_1"
   viewBox="0 0 7.4074174 11.000393"
   xml:space="preserve"
   xmlns="http://www.w3.org/2000/svg"
   xmlns:svg="http://www.w3.org/2000/svg"><defs
   id="defs351" />
<g
   id="g346"
   transform="matrix(0.03951866,0,0,0.03750122,-2.092355,0)">
	<g
   id="g344">
		<path
   style="fill:#6dd97f;stroke:#000000;stroke-width:5px;"
   d="M 146.667,0 C 94.903,0 52.946,41.957 52.946,93.721 c 0,22.322 7.849,42.789 20.891,58.878 4.204,5.178 11.237,13.331 14.903,18.906 21.109,32.069 48.19,78.643 56.082,116.864 1.354,6.527 2.986,6.641 4.743,0.212 5.629,-20.609 20.228,-65.639 50.377,-112.757 3.595,-5.619 10.884,-13.483 15.409,-18.379 6.554,-7.098 12.009,-15.224 16.154,-24.084 5.651,-12.086 8.882,-25.466 8.882,-39.629 C 240.387,41.962 198.43,0 146.667,0 Z m 0,144.358 c -28.892,0 -52.313,-23.421 -52.313,-52.313 0,-28.887 23.421,-52.307 52.313,-52.307 28.892,0 52.313,23.421 52.313,52.307 0,28.893 -23.421,52.313 -52.313,52.313 z"
   id="path340" />
		<circle
   style="fill:#6dd97f; stroke:#000000;stroke-width:10px;"
   cx="146.66701"
   cy="90.195999"
   r="21.756001"
   id="circle342" />
	</g>
</g>
</svg>
